<svg xmlns="http://www.w3.org/2000/svg" xmlns:xlink="http://www.w3.org/1999/xlink" width="112.211" height="68.898" viewBox="0 0 112.211 68.898">
  <defs>
    <clipPath id="clip-path">
      <rect id="長方形_19" data-name="長方形 19" width="112.211" height="68.899" transform="translate(754 472)" fill="#fff" stroke="#707070" stroke-width="1"/>
    </clipPath>
  </defs>
  <g id="logo" transform="translate(-754 -472)" clip-path="url(#clip-path)">
    <g id="レイヤー_2" data-name="レイヤー 2" transform="translate(754.586 474.636)">
      <g id="レイヤー_1" data-name="レイヤー 1" transform="translate(0 0)">
        <g id="グループ_3" data-name="グループ 3" transform="translate(0 51.198)">
          <path id="パス_17" data-name="パス 17" d="M7.553,123.55c0,.76.033,1.519.033,2.229a1.332,1.332,0,0,1-.43,1.073,2.426,2.426,0,0,1-1.651.364c-.33,0-.33,0-.4-.331a2.014,2.014,0,0,0-.281-.7,9.894,9.894,0,0,0,1.222.066c.413,0,.578-.215.578-.693V122.1H4.07a11.037,11.037,0,0,1-1.37,5.233c-.083.132-.116.2-.165.2s-.116-.049-.232-.148a2.024,2.024,0,0,0-.594-.413c1.123-1.783,1.519-3.417,1.519-8.237v-2.492c0-1.734-.033-2.507-.033-2.609s.016-.132.149-.132c.066,0,.379.033,1.385.033H6.049c.991,0,1.3-.033,1.4-.033s.132.017.132.132-.033.875-.033,2.609Zm-.924-5.3H4.169v.5c0,.941-.016,1.75-.05,2.475H6.626Zm0-3.826H4.169v2.954H6.628Zm7.743,11.225c0,.38.033.495.115.561a1.157,1.157,0,0,0,.562.1c.346,0,.528-.05.677-.248a6.473,6.473,0,0,0,.231-2.477,2.523,2.523,0,0,0,.644.33c.264.1.264.116.247.413-.1,1.8-.231,2.213-.495,2.507a1.718,1.718,0,0,1-1.392.409,2.814,2.814,0,0,1-1.139-.165c-.314-.132-.462-.413-.462-1.024V114.588H10.672v1.6c0,6.868-.627,8.947-2.229,11.044-.1.116-.148.182-.2.182s-.115-.066-.231-.182a2.086,2.086,0,0,0-.611-.446c1.668-1.653,2.279-4.011,2.279-9.607v-1.866c0-1.073-.033-1.436-.033-1.552s.033-.132.148-.132.38.033,1.486.033h1.47c1.089,0,1.42-.033,1.519-.033s.132.017.132.132-.033.975-.033,2.938Z" transform="translate(-1.709 -112.973)" fill="#282828" stroke="#282828" stroke-miterlimit="10" stroke-width="0.46"/>
          <path id="パス_18" data-name="パス 18" d="M49.062,118.749c.215.05.231.083.215.2a17.9,17.9,0,0,1-1.734,5.364c-.066.116-.132.132-.313.05l-.528-.231c-.264-.116-.264-.182-.214-.281a14.552,14.552,0,0,0,1.75-5.167c.016-.132.033-.115.3-.049Zm2.891,5.775c0,.495.115.776.4.908a5.013,5.013,0,0,0,1.767.182,3.558,3.558,0,0,0,2.029-.363c.463-.331.628-.792.611-3.022a2.928,2.928,0,0,0,.792.363c.3.1.3.1.28.4-.049,1.963-.3,2.706-.875,3.086a4.846,4.846,0,0,1-2.888.578,5.634,5.634,0,0,1-2.444-.314c-.445-.231-.726-.545-.726-1.5V118.4a8.349,8.349,0,0,0-.1-1.5,7.1,7.1,0,0,1,1.106.132c.165.033.231.1.231.165a.5.5,0,0,1-.082.232,2.967,2.967,0,0,0-.1,1.073Zm-.38-11.638c.115-.181.132-.2.248-.148a18.773,18.773,0,0,1,4.354,2.227c.1.066.1.1-.016.281l-.3.528c-.149.232-.165.248-.281.166a16.681,16.681,0,0,0-4.307-2.338c-.116-.049-.116-.082,0-.281Zm6.977,5.466c.181-.066.231-.066.314.05a21.264,21.264,0,0,1,2.262,4.82c.049.132.033.181-.182.28l-.546.26c-.248.115-.281.132-.314.016a18.055,18.055,0,0,0-2.211-4.936c-.066-.1-.05-.2.115-.264Z" transform="translate(-27.222 -112.526)" fill="#282828" stroke="#282828" stroke-miterlimit="10" stroke-width="0.46"/>
          <path id="パス_19" data-name="パス 19" d="M93.383,122.343c.66-.28,1.3-.594,1.932-.924a2.683,2.683,0,0,0-.033.644c.016.346,0,.363-.281.495-1.056.495-2.312,1.04-3.431,1.519a2.01,2.01,0,0,0-.611.347.373.373,0,0,1-.231.132c-.066,0-.132-.066-.182-.182a7.879,7.879,0,0,1-.363-.908,8.192,8.192,0,0,0,1.565-.48l.677-.264v-5.1h-.4c-1.123,0-1.436.033-1.535.033s-.132-.016-.132-.132v-.693c0-.116.017-.132.132-.132s.412.033,1.535.033h.4v-1.916a13.558,13.558,0,0,0-.115-2.277,8.482,8.482,0,0,1,1.056.1c.116.017.182.066.182.149a1.423,1.423,0,0,1-.066.3,6.789,6.789,0,0,0-.1,1.7v1.949H93.6c1.122,0,1.436-.033,1.535-.033s.132.016.132.132v.693c0,.116-.016.132-.132.132s-.413-.033-1.535-.033h-.215Zm4.127,2.081c0,.578.132.809.445.957a7.232,7.232,0,0,0,2.659.232c1.915,0,2.558-.116,2.954-.413s.462-.743.528-2.1a2.659,2.659,0,0,0,.677.363c.281.116.281.116.248.4-.149,1.486-.33,1.833-.809,2.147-.512.347-1.319.512-3.73.512a8.124,8.124,0,0,1-3.219-.347c-.429-.2-.71-.594-.71-1.451v-5.465c-1.271.479-1.7.677-1.783.71-.116.033-.132.016-.165-.1l-.165-.709c-.033-.116-.017-.132.082-.165s.611-.165,2.031-.677v-2.181a16.229,16.229,0,0,0-.1-2.442,8.32,8.32,0,0,1,1.024.082c.148.033.231.083.231.149a.784.784,0,0,1-.1.314,6.551,6.551,0,0,0-.1,1.864v1.868l2.211-.792v-2.692a13.1,13.1,0,0,0-.116-2.211,8.049,8.049,0,0,1,1.041.1c.115.016.2.066.2.149a.826.826,0,0,1-.083.28,6.334,6.334,0,0,0-.1,1.569v2.459l1.416-.515c1.5-.545,2.031-.809,2.111-.809a.121.121,0,0,1,.132.132c-.016.561-.016.974-.049,1.915a22.2,22.2,0,0,1-.314,3.252c-.214,1.188-.644,1.469-1.354,1.469a5.043,5.043,0,0,1-.677-.049c-.28-.033-.28-.033-.313-.363a2.419,2.419,0,0,0-.215-.694,4.234,4.234,0,0,0,1.024.132c.4,0,.561-.247.677-1.073a24.064,24.064,0,0,0,.214-3.431l-2.657.974v3.153c0,1.732.033,2.459.033,2.558s-.016.132-.132.132h-.743c-.116,0-.132-.017-.132-.132s.033-.826.033-2.558v-2.809l-2.211.792Z" transform="translate(-52.145 -112.277)" fill="#282828" stroke="#282828" stroke-miterlimit="10" stroke-width="0.46"/>
          <path id="パス_20" data-name="パス 20" d="M140.786,117.81c.1.049.148.115.148.181a1.211,1.211,0,0,1-.063.3,5.679,5.679,0,0,0-.132,1.519,26.475,26.475,0,0,0,.231,3.747c.248,1.948.958,3.367,1.75,3.367.66,0,1.288-1.056,1.767-2.591a2.093,2.093,0,0,0,.545.826.368.368,0,0,1,.132.413c-.462,1.337-1.354,2.591-2.459,2.591-1.387,0-2.426-1.915-2.791-4.507a36.239,36.239,0,0,1-.3-4.6,6.965,6.965,0,0,0-.132-1.583A4.5,4.5,0,0,1,140.786,117.81Zm7.869,1.275c.1-.05.182-.066.248,0a10,10,0,0,1,3.218,5.712.187.187,0,0,1-.115.214,3.276,3.276,0,0,1-.76.38.152.152,0,0,1-.214-.132,9.626,9.626,0,0,0-3.1-5.728,6.5,6.5,0,0,1,.726-.446Z" transform="translate(-80.251 -115.237)" fill="#282828" stroke="#282828" stroke-miterlimit="10" stroke-width="0.46"/>
          <path id="パス_21" data-name="パス 21" d="M186.095,117.8c.1.049.148.115.148.181a1.213,1.213,0,0,1-.066.3,5.68,5.68,0,0,0-.132,1.519,26.481,26.481,0,0,0,.231,3.747c.248,1.948.958,3.367,1.75,3.367.66,0,1.288-1.056,1.767-2.591a2.093,2.093,0,0,0,.545.826.367.367,0,0,1,.132.413c-.462,1.337-1.354,2.591-2.459,2.591-1.387,0-2.426-1.915-2.789-4.507a36.233,36.233,0,0,1-.3-4.6,6.965,6.965,0,0,0-.132-1.583A4.5,4.5,0,0,1,186.095,117.8Zm7.872,1.275c.1-.05.182-.066.248,0a10.009,10.009,0,0,1,3.219,5.712.189.189,0,0,1-.116.214,3.3,3.3,0,0,1-.759.38.152.152,0,0,1-.215-.132,9.619,9.619,0,0,0-3.1-5.728A6.622,6.622,0,0,1,193.967,119.077Z" transform="translate(-106.079 -115.23)" fill="#282828" stroke="#282828" stroke-miterlimit="10" stroke-width="0.46"/>
          <path id="パス_22" data-name="パス 22" d="M231.448,123.592c0,.776.033,1.451.033,2.163a1.313,1.313,0,0,1-.446,1.156,2.461,2.461,0,0,1-1.387.313c-.33,0-.347,0-.413-.3a2.2,2.2,0,0,0-.3-.693,6.121,6.121,0,0,0,1.106.016c.331-.033.479-.182.479-.66v-3.714h-2.558a11.909,11.909,0,0,1-1.451,5.332c-.066.132-.116.181-.182.181s-.132-.033-.231-.132a1.773,1.773,0,0,0-.611-.4c1.3-1.965,1.635-4.044,1.635-8.352v-2.477c0-1.715-.033-2.492-.033-2.576,0-.132.016-.148.149-.148.082,0,.379.033,1.4.033h1.3c1.007,0,1.3-.033,1.387-.033.132,0,.149.016.149.148,0,.083-.033.859-.033,2.576Zm-.924-5.58h-2.461v.5c0,.941-.016,1.75-.049,2.492h2.507Zm0-3.78h-2.461v2.9h2.459Zm7.774,4.856a.852.852,0,0,0,.379-.066.5.5,0,0,1,.2-.049c.1,0,.181.049.478.33.232.231.3.33.3.413a.239.239,0,0,1-.116.214c-.132.1-.165.215-.264.6a12.7,12.7,0,0,1-1.618,3.694,10.958,10.958,0,0,0,2.938,2.345,2.32,2.32,0,0,0-.446.594c-.083.165-.132.248-.2.248a.464.464,0,0,1-.231-.116,12.357,12.357,0,0,1-2.626-2.277,12.309,12.309,0,0,1-2.145,2.211c-.1.083-.165.132-.215.132s-.115-.066-.214-.2a1.907,1.907,0,0,0-.512-.512,9.856,9.856,0,0,0,2.492-2.393,13.444,13.444,0,0,1-1.866-4.325h-.809v4.061c0,2.295.033,3.334.033,3.417,0,.115-.016.132-.132.132h-.743c-.132,0-.148-.017-.148-.132s.033-1.04.033-3.334v-7.114c0-2.312-.033-3.285-.033-3.369,0-.115.016-.132.148-.132.083,0,.694.033,2.064.033h2.624c1.387,0,1.847-.033,1.949-.033s.148.033.148.149c-.033.264-.066.561-.082.858a11.962,11.962,0,0,1-.347,2.36,1.4,1.4,0,0,1-1.519.991c-.4,0-.743,0-1.123-.033-.3-.033-.3-.016-.38-.347a2.407,2.407,0,0,0-.247-.644,10.249,10.249,0,0,0,1.567.116c.512,0,.694-.116.842-.644a10.719,10.719,0,0,0,.215-1.882h-4.87v4.706Zm-2.791.842a12.08,12.08,0,0,0,1.536,3.5,11.511,11.511,0,0,0,1.387-3.5Z" transform="translate(-129.28 -112.865)" fill="#282828" stroke="#282828" stroke-miterlimit="10" stroke-width="0.46"/>
        </g>
        <g id="グループ_2" data-name="グループ 2" transform="translate(34.545)">
          <path id="パス_23" data-name="パス 23" d="M27.04,42.983c0,1.677-.03,3.118-.088,4.412h4.472V42.1H27.04Z" transform="translate(-15.365 -24.001)" fill="#282828"/>
          <path id="パス_24" data-name="パス 24" d="M39.028,0H3.062A3.062,3.062,0,0,0,0,3.062V39.028A3.062,3.062,0,0,0,3.062,42.09H39.028a3.062,3.062,0,0,0,3.062-3.062V3.062A3.062,3.062,0,0,0,39.028,0ZM16.993,33.427c-.528.442-1.264.648-2.941.648-.588,0-.588,0-.706-.588a3.656,3.656,0,0,0-.5-1.236,17.333,17.333,0,0,0,2.177.117c.735,0,1.029-.381,1.029-1.235V24.955H11.5c-.294,4.589-1.089,6.884-2.442,9.326-.146.235-.206.352-.294.352s-.206-.088-.412-.264A3.639,3.639,0,0,0,7.3,33.633C9.3,30.455,10,27.543,10,18.953V14.514c0-3.089-.059-4.472-.059-4.648,0-.206.03-.236.264-.236.117,0,.677.059,2.471.059h2.354c1.764,0,2.324-.059,2.507-.059.206,0,.235.03.235.236,0,.177-.059,1.56-.059,4.648V27.546c0,1.352.059,2.706.059,3.972A2.407,2.407,0,0,1,17,33.427Zm17.269-4.5c-.177,3.206-.412,3.941-.883,4.472a3.028,3.028,0,0,1-2.471.735,5.012,5.012,0,0,1-2.029-.294c-.559-.235-.823-.735-.823-1.823V11.564h-4.79v2.854c0,12.238-1.118,15.944-3.972,19.681-.175.206-.264.323-.352.323s-.206-.117-.412-.323a3.7,3.7,0,0,0-1.089-.792c2.971-2.94,4.065-7.146,4.065-17.118V12.863c0-1.912-.059-2.56-.059-2.771s.059-.235.264-.235c.177,0,.677.059,2.647.059h2.619c1.941,0,2.529-.059,2.706-.059.206,0,.235.029.235.235,0,.177-.058,1.736-.058,5.237V31.279c0,.677.058.883.206,1a2.089,2.089,0,0,0,1,.175c.618,0,.941-.088,1.206-.441.177-.264.383-1.118.412-4.414a4.543,4.543,0,0,0,1.148.588c.474.178.474.206.437.736Z" fill="#282828"/>
          <rect id="長方形_20" data-name="長方形 20" width="4.383" height="5.266" transform="translate(11.676 11.275)" fill="#282828"/>
        </g>
      </g>
    </g>
  </g>
</svg>
