<svg id="logo" xmlns="http://www.w3.org/2000/svg" width="138.682" height="77.942" viewBox="0 0 138.682 77.942">
  <path id="パス_9" data-name="パス 9" d="M15.573,568.986c0,.935.041,1.868.041,2.742a1.639,1.639,0,0,1-.529,1.32,2.984,2.984,0,0,1-2.031.448c-.406,0-.406,0-.487-.407a2.477,2.477,0,0,0-.346-.855,12.176,12.176,0,0,0,1.5.081c.508,0,.711-.265.711-.852V567.2H11.288A13.581,13.581,0,0,1,9.6,573.639c-.1.162-.143.243-.2.243s-.143-.06-.286-.182a2.489,2.489,0,0,0-.731-.508c1.381-2.193,1.869-4.2,1.869-10.135v-3.067c0-2.133-.041-3.084-.041-3.209s.019-.162.183-.162c.081,0,.466.04,1.7.04h1.623c1.219,0,1.606-.04,1.727-.04s.162.021.162.162-.041,1.076-.041,3.209Zm-1.136-6.519H11.409v.61c0,1.157-.019,2.152-.062,3.045h3.084Zm0-4.708H11.409v3.635h3.026Zm9.526,13.81c0,.467.041.609.141.69a1.424,1.424,0,0,0,.692.123c.425,0,.649-.062.833-.305.122-.183.263-.773.284-3.047a3.1,3.1,0,0,0,.792.406c.325.123.325.143.3.508-.122,2.214-.284,2.722-.609,3.084a2.113,2.113,0,0,1-1.713.5,3.465,3.465,0,0,1-1.4-.2c-.386-.162-.568-.508-.568-1.26V557.96H19.411v1.969c0,8.45-.771,11.008-2.742,13.588-.122.143-.182.224-.244.224s-.141-.081-.284-.224a2.569,2.569,0,0,0-.752-.549c2.052-2.034,2.8-4.935,2.8-11.82v-2.3c0-1.32-.041-1.766-.041-1.909s.041-.162.182-.162.468.041,1.828.041h1.808c1.339,0,1.747-.041,1.869-.041s.162.021.162.162-.041,1.2-.041,3.615Z" transform="translate(-7.479 -496.583)" fill="#282828" stroke="#282828" stroke-miterlimit="10" stroke-width="1"/>
  <path id="パス_10" data-name="パス 10" d="M231.062,560.2c.265.062.284.1.265.245a22.023,22.023,0,0,1-2.133,6.6c-.081.143-.162.162-.385.062l-.649-.284c-.325-.143-.325-.224-.263-.346a17.9,17.9,0,0,0,2.153-6.357c.019-.162.041-.141.365-.06Zm3.557,7.106c0,.609.141.955.487,1.117a6.168,6.168,0,0,0,2.174.224,4.377,4.377,0,0,0,2.5-.446c.57-.408.773-.974.752-3.718a3.6,3.6,0,0,0,.974.447c.365.122.365.122.344.487-.06,2.416-.365,3.33-1.076,3.8-.731.528-1.766.711-3.554.711a6.931,6.931,0,0,1-3.007-.386c-.547-.284-.893-.67-.893-1.847V559.77a10.273,10.273,0,0,0-.122-1.849,8.728,8.728,0,0,1,1.36.162c.2.041.284.122.284.2a.62.62,0,0,1-.1.286,3.65,3.65,0,0,0-.122,1.32Zm-.468-14.318c.141-.222.162-.243.305-.182a23.1,23.1,0,0,1,5.357,2.74c.122.081.122.122-.02.346l-.365.649c-.183.286-.2.305-.346.2a20.527,20.527,0,0,0-5.3-2.877c-.143-.06-.143-.1,0-.346Zm8.584,6.726c.222-.081.284-.081.386.062a26.159,26.159,0,0,1,2.782,5.93c.06.162.041.222-.224.344l-.672.32c-.305.141-.346.162-.386.02a22.214,22.214,0,0,0-2.721-6.073c-.081-.122-.062-.244.141-.325Z" transform="translate(-203.288 -493.153)" fill="#282828" stroke="#282828" stroke-miterlimit="10" stroke-width="1"/>
  <path id="パス_11" data-name="パス 11" d="M446.213,563.014c.812-.344,1.6-.731,2.377-1.136a3.3,3.3,0,0,0-.041.792c.02.425,0,.446-.346.609-1.3.609-2.844,1.279-4.221,1.868a2.475,2.475,0,0,0-.752.427.459.459,0,0,1-.284.162c-.081,0-.162-.081-.224-.224a9.689,9.689,0,0,1-.446-1.117,10.079,10.079,0,0,0,1.925-.591l.833-.325v-6.274h-.487c-1.382,0-1.766.041-1.888.041s-.162-.019-.162-.162v-.852c0-.143.021-.162.162-.162s.507.041,1.888.041h.487v-2.357a16.678,16.678,0,0,0-.141-2.8,10.428,10.428,0,0,1,1.3.122c.143.021.224.081.224.183a1.746,1.746,0,0,1-.081.365,8.356,8.356,0,0,0-.122,2.091v2.4h.265c1.38,0,1.766-.041,1.888-.041s.162.019.162.162v.852c0,.143-.019.162-.162.162s-.508-.041-1.888-.041h-.265Zm5.078,2.56c0,.711.162,1,.547,1.177.346.183,1.117.286,3.271.286,2.356,0,3.148-.143,3.635-.508s.568-.914.649-2.579a3.273,3.273,0,0,0,.833.446c.346.143.346.143.305.487-.183,1.828-.406,2.255-1,2.641-.63.427-1.623.63-4.589.63-2.52,0-3.474-.183-3.961-.427-.528-.244-.873-.73-.873-1.786v-6.724c-1.563.589-2.093.833-2.193.873-.143.041-.162.019-.2-.122l-.2-.872c-.041-.143-.021-.162.1-.2s.752-.2,2.5-.833v-2.683a19.961,19.961,0,0,0-.122-3,10.228,10.228,0,0,1,1.26.1c.182.041.284.1.284.183a.963.963,0,0,1-.122.386,8.062,8.062,0,0,0-.122,2.294v2.3l2.721-.974V553.35a16.119,16.119,0,0,0-.143-2.721,9.924,9.924,0,0,1,1.281.122c.141.02.243.081.243.184a1.014,1.014,0,0,1-.1.344,7.8,7.8,0,0,0-.122,1.93v3.026l1.742-.633c1.849-.67,2.5-1,2.6-1a.149.149,0,0,1,.162.162c-.02.69-.02,1.2-.06,2.356a27.32,27.32,0,0,1-.386,4c-.263,1.461-.792,1.807-1.666,1.807a6.212,6.212,0,0,1-.833-.06c-.344-.041-.344-.041-.385-.446a2.972,2.972,0,0,0-.265-.854,5.212,5.212,0,0,0,1.26.162c.487,0,.69-.3.833-1.32a29.628,29.628,0,0,0,.263-4.221l-3.269,1.2v3.88c0,2.132.041,3.026.041,3.148s-.019.162-.162.162h-.914c-.143,0-.162-.021-.162-.162s.041-1.016.041-3.148v-3.456l-2.721.974Z" transform="translate(-394.573 -491.239)" fill="#282828" stroke="#282828" stroke-miterlimit="10" stroke-width="1"/>
  <path id="パス_12" data-name="パス 12" d="M685.659,576.514c.122.06.182.141.182.222a1.492,1.492,0,0,1-.078.372,6.987,6.987,0,0,0-.162,1.869,32.573,32.573,0,0,0,.284,4.61c.305,2.4,1.179,4.143,2.153,4.143.812,0,1.584-1.3,2.174-3.188a2.576,2.576,0,0,0,.67,1.016.453.453,0,0,1,.162.508c-.568,1.645-1.666,3.188-3.026,3.188-1.706,0-2.985-2.356-3.433-5.545a44.6,44.6,0,0,1-.365-5.666,8.576,8.576,0,0,0-.162-1.948A5.537,5.537,0,0,1,685.659,576.514Zm9.682,1.568c.122-.062.224-.081.305,0a12.3,12.3,0,0,1,3.959,7.028.231.231,0,0,1-.141.263,4.032,4.032,0,0,1-.935.468.187.187,0,0,1-.263-.162,11.843,11.843,0,0,0-3.818-7.047A7.992,7.992,0,0,1,695.341,578.082Z" transform="translate(-610.276 -513.959)" fill="#282828" stroke="#282828" stroke-miterlimit="10" stroke-width="1"/>
  <path id="パス_13" data-name="パス 13" d="M907.86,576.46c.122.06.182.141.182.222a1.494,1.494,0,0,1-.081.365,6.983,6.983,0,0,0-.162,1.869,32.591,32.591,0,0,0,.284,4.61c.305,2.4,1.179,4.143,2.153,4.143.812,0,1.584-1.3,2.174-3.188a2.574,2.574,0,0,0,.67,1.016.452.452,0,0,1,.162.508c-.568,1.644-1.666,3.188-3.026,3.188-1.706,0-2.985-2.355-3.432-5.545a44.553,44.553,0,0,1-.365-5.666,8.576,8.576,0,0,0-.162-1.948A5.536,5.536,0,0,1,907.86,576.46Zm9.685,1.568c.122-.062.224-.081.305,0a12.315,12.315,0,0,1,3.961,7.028.232.232,0,0,1-.143.263,4.057,4.057,0,0,1-.933.468.187.187,0,0,1-.265-.162,11.835,11.835,0,0,0-3.818-7.047A8.151,8.151,0,0,1,917.545,578.029Z" transform="translate(-808.509 -513.905)" fill="#282828" stroke="#282828" stroke-miterlimit="10" stroke-width="1"/>
  <path id="パス_14" data-name="パス 14" d="M1113.179,568.339c0,.955.041,1.786.041,2.661a1.615,1.615,0,0,1-.549,1.422,3.026,3.026,0,0,1-1.706.385c-.406,0-.427,0-.508-.365a2.708,2.708,0,0,0-.365-.852,7.523,7.523,0,0,0,1.36.02c.407-.041.589-.224.589-.812v-4.57h-3.148a14.653,14.653,0,0,1-1.786,6.56c-.081.162-.143.222-.224.222s-.162-.041-.284-.162a2.185,2.185,0,0,0-.752-.487c1.605-2.417,2.011-4.976,2.011-10.276v-3.047c0-2.11-.041-3.067-.041-3.169,0-.162.019-.182.183-.182.1,0,.466.041,1.726.041h1.6c1.239,0,1.606-.041,1.706-.041.162,0,.183.019.183.182,0,.1-.04,1.057-.04,3.169Zm-1.136-6.865h-3.028v.61c0,1.157-.019,2.153-.06,3.067h3.084Zm0-4.651h-3.028v3.572h3.026Zm9.565,5.974a1.048,1.048,0,0,0,.466-.081.619.619,0,0,1,.245-.06c.122,0,.222.06.588.406.286.284.367.406.367.508a.294.294,0,0,1-.143.263c-.162.123-.2.265-.325.732a15.632,15.632,0,0,1-1.99,4.545,13.483,13.483,0,0,0,3.615,2.885,2.855,2.855,0,0,0-.548.731c-.1.2-.162.305-.244.305a.572.572,0,0,1-.284-.143,15.2,15.2,0,0,1-3.23-2.8,15.145,15.145,0,0,1-2.64,2.721c-.122.1-.2.162-.265.162s-.141-.081-.263-.244a2.349,2.349,0,0,0-.63-.63,12.122,12.122,0,0,0,3.067-2.945,16.54,16.54,0,0,1-2.3-5.321h-1v5c0,2.823.041,4.1.041,4.2,0,.141-.019.162-.162.162h-.914c-.162,0-.182-.021-.182-.162s.041-1.279.041-4.1v-8.753c0-2.844-.041-4.042-.041-4.145,0-.141.02-.162.182-.162.1,0,.854.041,2.539.041h3.229c1.706,0,2.273-.041,2.4-.041s.182.041.182.183c-.041.325-.081.69-.1,1.055a14.724,14.724,0,0,1-.427,2.9,1.718,1.718,0,0,1-1.869,1.219c-.487,0-.914,0-1.381-.041-.365-.041-.365-.019-.468-.427a2.957,2.957,0,0,0-.3-.792,12.61,12.61,0,0,0,1.929.143c.63,0,.854-.143,1.036-.792a13.184,13.184,0,0,0,.265-2.315H1116.1V562.8Zm-3.434,1.036a14.87,14.87,0,0,0,1.89,4.307,14.159,14.159,0,0,0,1.706-4.307Z" transform="translate(-986.573 -495.751)" fill="#282828" stroke="#282828" stroke-miterlimit="10" stroke-width="1"/>
  <path id="パス_15" data-name="パス 15" d="M132.287,207.557c0,2.063-.037,3.836-.109,5.429h5.5v-6.515h-5.393Z" transform="translate(-117.922 -184.201)" fill="#282828"/>
  <path id="パス_16" data-name="パス 16" d="M48.018,0H3.768A3.768,3.768,0,0,0,0,3.768v44.25a3.768,3.768,0,0,0,3.768,3.768h44.25a3.768,3.768,0,0,0,3.768-3.768V3.768A3.768,3.768,0,0,0,48.018,0ZM20.908,41.127c-.649.544-1.555.8-3.619.8-.724,0-.724,0-.869-.724a4.5,4.5,0,0,0-.615-1.521,21.327,21.327,0,0,0,2.679.144c.9,0,1.266-.469,1.266-1.519V30.7h-5.6c-.362,5.646-1.339,8.469-3,11.474-.18.289-.253.433-.362.433s-.253-.109-.506-.325a4.477,4.477,0,0,0-1.3-.906c2.461-3.909,3.33-7.492,3.33-18.062V17.857c0-3.8-.073-5.5-.073-5.719,0-.253.037-.291.325-.291.144,0,.833.073,3.041.073h2.9c2.17,0,2.859-.073,3.084-.073.253,0,.289.037.289.291,0,.218-.073,1.919-.073,5.719V33.891c0,1.664.073,3.33.073,4.886a2.961,2.961,0,0,1-.951,2.349Zm21.247-5.537c-.218,3.945-.506,4.849-1.086,5.5s-1.448.9-3.041.9a6.167,6.167,0,0,1-2.5-.362c-.688-.289-1.013-.9-1.013-2.244V14.227H28.625v3.511c0,15.057-1.375,19.617-4.886,24.214-.216.253-.325.4-.433.4s-.253-.144-.506-.4a4.546,4.546,0,0,0-1.339-.974c3.656-3.617,5-8.792,5-21.062V15.826c0-2.352-.073-3.149-.073-3.409s.073-.289.325-.289c.218,0,.833.073,3.257.073h3.222c2.388,0,3.112-.073,3.33-.073.253,0,.289.036.289.289,0,.218-.071,2.136-.071,6.443V38.484c0,.833.071,1.086.253,1.232a2.571,2.571,0,0,0,1.231.216c.76,0,1.157-.109,1.484-.542.218-.325.471-1.375.506-5.43a5.589,5.589,0,0,0,1.412.724c.583.219.583.253.537.906Z" fill="#282828"/>
  <rect id="長方形_12" data-name="長方形 12" width="5.393" height="6.479" transform="translate(14.365 13.872)" fill="#282828"/>
</svg>
