<svg xmlns="http://www.w3.org/2000/svg" viewBox="0 0 421.19 81.41"><defs><style>.cls-1,.cls-2{fill:none;stroke-miterlimit:10;stroke-width:5px;}.cls-1{stroke:#000;}.cls-2{stroke:#e60000;}.cls-3{font-size:74.05px;font-family:JosefinSans-Regular, Josefin Sans;letter-spacing:-0.03em;}.cls-4{letter-spacing:-0.05em;}.cls-5{letter-spacing:-0.03em;}</style></defs><g id="レイヤー_2" data-name="レイヤー 2"><g id="レイヤー_1-2" data-name="レイヤー 1"><polyline class="cls-1" points="1.78 25.49 12.12 35.96 1.78 44.39"/><polyline class="cls-1" points="28.08 9.79 37.27 13.96 44.42 11.07"/><polyline class="cls-1" points="62.67 33.33 59.82 38.2 62.67 43.07"/><path class="cls-1" d="M28.08,74.13c.38-.38,12.51-10.34,12.51-10.34l8.68,7.28"/><polyline class="cls-2" points="13.4 20.77 30.5 37.37 13.4 54.75"/><polyline class="cls-2" points="21.95 15.02 38.16 27.41 49.27 19.62"/><polyline class="cls-2" points="53.23 29.07 46.33 36.85 57.69 51.28"/><path class="cls-2" d="M22,62.39c0-.64,16.72-16.6,16.72-16.6L51.82,58.94"/><text class="cls-3" transform="translate(77.1 63.79)">o<tspan class="cls-4" x="38.13" y="0">r</tspan><tspan class="cls-5" x="62.42" y="0">dermade</tspan></text></g></g></svg>